<?xml version="1.0" encoding="utf-8"?>
<!-- Generator: Adobe Illustrator 23.0.5, SVG Export Plug-In . SVG Version: 6.00 Build 0)  -->
<svg version="1.1" id="Layer_1" xmlns="http://www.w3.org/2000/svg" xmlns:xlink="http://www.w3.org/1999/xlink" x="0px" y="0px"
	 viewBox="0 0 100 100" style="enable-background:new 0 0 100 100;" xml:space="preserve">
<style type="text/css">
	.st0{fill:#FFFFFF;}
	.st1{fill:#89B71A;}
</style>
<circle class="st0" cx="51.5" cy="50.2" r="37.5"/>
<g>
	<path class="st1" d="M57.3,61.2c-0.2-1.2-0.6-1.5-1.5-1.4h-0.2c-0.9,0.2-1,0.6-0.8,1.8c0.2,2.6,0.5,5.4,0,7.5
		c-0.2,0.7-0.5,1.3-0.9,1.7l3.5-0.6c1.1-0.2,1.4-0.6,1.2-1.8L57.3,61.2z"/>
	<path class="st1" d="M68.3,63c-0.7,0.7-1.3,1.5-1,2.8c0.2,1.2,0.9,1.6,1.7,1.5c0.5-0.1,1-0.4,1.3-1.1l-0.8-4.5
		C69.3,62.1,69,62.4,68.3,63z"/>
	<path class="st1" d="M45.5,61.3c-1.2,0.2-1.8,2-1.1,5.9s1.8,5.4,3,5.1c1.2-0.2,1.8-2,1.1-5.9C47.8,62.5,46.7,61,45.5,61.3z"/>
	<path class="st1" d="M64,45.1c1.8-0.3,2.1-3.2,1.3-8.1c-0.9-5.1-2.4-7.4-4.1-7.1C59.4,30.1,59,33,59.9,38
		C60.8,43,62.3,45.4,64,45.1z"/>
	<path class="st1" d="M49.8,47.6c1.8-0.3,2.1-3.2,1.3-8.1c-0.9-5.1-2.4-7.4-4.1-7.1c-1.8,0.3-2.1,3.2-1.3,8.1
		C46.5,45.5,48,47.9,49.8,47.6z"/>
	<path class="st1" d="M95.1,44.8c-1-1.2-1.1-2.3-0.6-3.7c0.6-1.5,1-3.1,1.6-4.5c0.5-1.2,0.2-1.9-0.8-2.6c-1.4-1-2.7-2-4.1-2.9
		c-1.3-0.8-1.8-1.8-1.7-3.3c0.1-1.5,0-3,0.1-4.4c0.1-1.6-0.4-2.5-2.1-2.9c-1.6-0.3-3.1-0.9-4.6-1.3c-1.2-0.3-1.8-1-2.1-2.2
		c-0.4-1.5-1-2.9-1.3-4.4c-0.3-1.7-1.2-2.6-2.9-2.2c-4.9,1-8.2-0.8-10.2-5.3C65.7,3.7,64.5,3.2,63,4c-4,2.4-7.7,2.2-11-1.6
		C51.6,1.9,50.9,1,50.4,1c-1.3,0-1.7,0.7-2.6,1.5c-1.3,1.2-2.8,2.1-4.1,3.1c-0.6,0.5-1.3,0.3-1.9,0c-1.6-0.6-3.3-1-4.9-1.7
		c-1.5-0.6-2.4-0.1-3.2,1.1c-0.9,1.4-1.9,2.6-2.7,4c-0.6,1-1.4,1.5-2.7,1.4c-1.7-0.1-3.4,0-5-0.1c-1.4-0.1-2.4,0.4-2.6,1.9
		c-0.5,5-3.1,7.8-8.2,8.3c-1.5,0.1-2.3,1.2-2,2.7c1,4.8-0.6,8.3-5.2,10.3c-1.5,0.7-1.9,1.9-1.2,3.5c0.3,0.7,0.4,1.4,0.8,2.1
		c1.7,2.9,0.9,5.3-1.3,7.5c-0.8,0.8-2,1.5-2.3,2.6c-0.4,1.5,1,2.4,1.8,3.5c1,1.3,1.7,2.9,2.8,4.2c0.4,0.4,0.1,0.9-0.1,1.3
		c-0.6,1.7-1.1,3.4-1.7,5.1c-0.6,1.5-0.2,2.4,1.1,3.2c1.3,0.8,2.5,1.8,3.8,2.6c1.2,0.7,1.6,1.7,1.5,3c-0.1,1.7-0.1,3.5-0.1,5.2
		c0,1.1,0.5,1.8,1.5,2.1c1.5,0.4,2.9,1,4.4,1.3c1.8,0.4,2.6,1.4,3.1,3.2c2,7.3,0.8,5.8,7.6,5.7c2.3,0,3.5,0.9,4.7,2.6
		c3.6,5.4,2.3,5,8.5,2.7c1.3-0.5,2.7-0.8,4-0.1c0.8,0.4,1.5,1.1,2.2,1.7s1.4,1,2,1.6c0.8,0.8,1.4,1.5,2.5,0.6c0.5-0.4,1-1.1,1.5-1.5
		c1-0.9,2.1-1.6,3.4-2.1c2.7-0.9,5.5-0.2,7.8,1.3c0.9,0.6,1.8,0.1,2.4-0.8c1-1.4,2-2.8,3-4.3c0.7-1.1,1.6-1.7,3-1.6
		c1.6,0.1,3.2,0.1,4.8,0.1c1.4,0.1,2.3-0.4,2.6-1.9c0.2-0.9,0.7-1.8,0.8-2.7c0.3-3,2.1-4.2,4.9-4.9c5.6-1.4,4.7-1,4.4-5.8
		c-0.2-3.2,0.7-5.4,3.6-6.8c0.7-0.3,1.3-0.9,2-1.4c1.2-0.8,1.6-1.7,1-3.1C96,63,96,62.7,95.9,62.4c-0.7-1.9-1.6-4.1-1.1-6.1
		c0.4-1.5,1.5-2.7,2.6-3.7c0.7-0.7,2.4-1.8,1.6-3C98,48,96.5,46.3,95.1,44.8z M20.9,53.1c-2.8,0.5-5.4-0.9-6.1-5
		c-0.7-3.9,1.2-6.4,4.3-7c1.1-0.2,2.2-0.1,2.9,0.2c0.8,0.3,1.4,1,1.6,1.8c0.2,1-0.4,1.9-1.4,2.1c-1,0.2-1.8-0.3-2-1.3
		c-0.2-0.9,0.4-1.7,1.1-2c-0.3-0.3-0.8-0.4-1.4-0.3c-1.8,0.3-2.4,2.7-1.8,5.7c0.6,3.4,2.2,4.1,3.7,3.9c0.8-0.1,1.9-0.7,2.5-2.3
		l0.4,0.1C24.4,50.6,23.4,52.6,20.9,53.1z M61.2,29.4c3.6-0.6,6.6,1.8,7.4,6.8c0.9,4.9-1.1,8.6-4.6,9.2c-3.6,0.6-6.5-1.8-7.4-6.8
		C55.7,33.8,57.6,30,61.2,29.4z M46.9,31.9c3.6-0.6,6.6,1.8,7.4,6.8c0.9,4.9-1.1,8.6-4.6,9.2c-3.6,0.6-6.5-1.8-7.4-6.8
		C41.4,36.3,43.4,32.5,46.9,31.9z M39,67c-1.1-2.9-2.1-3.8-3.4-3.6l-0.4,0.1c-0.7,0.1-0.9,0.5-0.7,1.5l1.3,7.2
		c0.3,1.4,1.1,1.7,2.4,1.4l0.1,0.5c-0.8,0.1-2.3,0.3-3.8,0.6c-1.1,0.2-2.3,0.5-2.8,0.6l-0.1-0.5c1-0.2,1.3-0.6,1.1-1.8l-1.3-7.2
		c-0.2-1.2-0.7-1.5-1.7-1.3L29.6,64c0.6-0.1,1.8-0.2,2.9-0.4c1.1-0.2,2.2-0.5,2.8-0.6l3.4-0.6c0.1,1.3,0.3,2.5,0.4,3.1
		c0.1,0.6,0.2,1.1,0.3,1.5L39,67z M35.6,50.2c-1.3,0.2-2.2,0.4-2.9,0.5c-0.4,0.1-0.8,0.1-1.1,0.2l-0.1-0.4c2.6-3.2,5.2-7.9,4.4-12.4
		c-0.5-2.7-1.8-3.3-3.1-3.1c-0.7,0.1-1.4,0.6-1.7,1.2c0.9,0.1,1.6,0.6,1.7,1.4c0.2,1-0.5,1.7-1.4,1.9c-1,0.2-1.7-0.5-1.9-1.3
		c-0.1-0.8,0.3-1.5,0.8-2.1c0.7-0.9,1.9-1.5,3.4-1.7c2.7-0.5,5,0.5,5.4,2.9c0.5,3.1-2.5,6-5.3,10.7l5.3-0.9c0.8-0.1,1.3-0.6,1.2-1.8
		l0.5-0.1c0,0.3,0.1,0.8,0.2,1.2c0.1,0.6,0.3,1.7,0.6,2.7L35.6,50.2z M47.5,72.7c-3.1,0.6-5.6-0.7-6.4-5c-0.8-4.3,1.2-6.3,4.3-6.9
		c3.1-0.6,5.6,0.7,6.4,5C52.6,70.2,50.7,72.2,47.5,72.7z M63.8,73.1c-0.9-2.5-1.7-3.3-3.7-2.9c-1.3,0.2-2.3,0.4-4.2,0.8
		c-1.9,0.3-2.5,1.3-2.4,4L53,75.1c0-0.3-0.1-0.8-0.2-1.4c-0.1-0.5-0.3-1.5-0.6-2.5l0.4-0.1c0.9-0.2,1.5-1,1.7-2c0.5-2,0.2-4.8,0-7.4
		c0-0.1,0-0.2,0-0.2c-0.2-1.1-0.8-1.3-2-1.1l-0.1-0.5c0.2,0,0.8-0.1,1.5-0.2c0.6-0.1,1.2-0.3,2.1-0.4c1.1-0.2,1.9-0.2,2.8-0.4
		c1-0.2,2.2-0.5,2.7-0.6l0.1,0.5c-0.9,0.2-1.2,0.6-1,1.8l1.3,7.2c0.2,1.2,0.7,1.5,2,1.3c0.1,1,0.2,2,0.3,2.6c0.1,0.5,0.2,1,0.3,1.3
		L63.8,73.1z M72.8,68.1c-1.6,0.3-2.2-0.5-2.4-1.4c-0.5,1.4-1.7,2.1-2.9,2.3c-1.6,0.3-2.9-0.4-3.2-2c-0.3-1.6,0.6-2.6,2.5-3.7
		c1.5-0.9,2.7-1.5,2.5-2.5L69,59.1c-0.2-1.1-0.8-1.9-2.1-1.6c-0.5,0.1-1.1,0.4-1.5,0.8c0.8,0.1,1.4,0.6,1.6,1.5s-0.4,1.7-1.5,1.9
		c-0.9,0.2-1.7-0.5-1.8-1.4c-0.1-0.8,0.3-1.5,0.9-2c0.7-0.6,1.7-1.1,3.2-1.3c1.4-0.2,2.5-0.2,3.4,0.4c0.8,0.5,1,1.4,1.3,2.9l1,5.9
		c0.1,0.7,0.3,0.9,0.6,0.9c0.3-0.1,0.5-0.3,0.7-0.5l0.3,0.3C74.6,67.5,73.9,67.9,72.8,68.1z M76.1,43.3c-1.4,0.2-2.5,0.1-3.3-0.2
		s-1.3-0.9-1.4-1.5c-0.2-0.9,0.3-1.6,1.4-1.8c1-0.2,1.8,0.3,2,1.2c0.1,0.8-0.3,1.5-1,1.8c0.3,0.2,1,0.3,1.8,0.1
		c2.3-0.4,3.2-2.4,2.8-4.8c-0.4-2.2-1.7-3.5-3.5-3.4c-0.3,0.3-0.5,0.5-0.9,0.6c-0.2,0-0.5,0-0.5-0.3s0.2-0.4,0.6-0.5
		c0.2,0,0.4,0,0.6,0c1.3-0.9,1.7-2.3,1.4-4c-0.4-2-1.4-3-2.8-2.8c-0.7,0.1-1.4,0.5-1.7,1.1c0.9,0.1,1.6,0.6,1.7,1.4
		c0.2,1-0.5,1.7-1.4,1.9c-1,0.2-1.7-0.4-1.9-1.3c-0.1-0.8,0.2-1.5,0.8-2.1c0.7-0.8,1.9-1.3,3.4-1.6c2.7-0.5,4.8,0.4,5.1,2.4
		c0.4,2.1-1.5,4-4,5c3-0.4,5.9,0.5,6.3,3.2C82.1,40.5,79.4,42.7,76.1,43.3z"/>
</g>
</svg>
