<?xml version="1.0" encoding="utf-8"?>
<!-- Generator: Adobe Illustrator 23.0.1, SVG Export Plug-In . SVG Version: 6.00 Build 0)  -->
<svg version="1.1" id="Слой_1" xmlns="http://www.w3.org/2000/svg" xmlns:xlink="http://www.w3.org/1999/xlink" x="0px" y="0px"
	 viewBox="0 0 232 340" style="enable-background:new 0 0 232 340;" xml:space="preserve">
<g>
	<g>
		<path d="M228,162.5L68.6,3.1c-4.2-4.2-10.9-4.2-15,0c-4.2,4.2-4.2,10.9,0,15l141.2,141.2H10.6C4.8,159.4,0,164.1,0,170
			c0,5.9,4.8,10.6,10.6,10.6h184.2L53.6,321.9c-4.2,4.2-4.2,10.9,0,15c2.1,2.1,4.8,3.1,7.5,3.1c2.7,0,5.4-1,7.5-3.1L228,177.5
			C232.1,173.4,232.1,166.6,228,162.5z"/>
	</g>
</g>
</svg>
