<?xml version="1.0" encoding="utf-8"?>
<!-- Generator: Adobe Illustrator 23.0.1, SVG Export Plug-In . SVG Version: 6.00 Build 0)  -->
<svg version="1.1" id="Слой_1" xmlns="http://www.w3.org/2000/svg" xmlns:xlink="http://www.w3.org/1999/xlink" x="0px" y="0px"
	 viewBox="0 0 232 340" style="enable-background:new 0 0 232 340;" xml:space="preserve">
<g>
	<g>
		<path d="M3.1,177.5l159.4,159.4c2.1,2.1,4.8,3.1,7.5,3.1s5.4-1,7.5-3.1c4.2-4.1,4.2-10.8,0-15L36.3,180.6h184.2
			c5.8,0,10.6-4.7,10.6-10.6c0-5.9-4.8-10.6-10.6-10.7H36.3L177.5,18.1c4.2-4.1,4.2-10.8,0-15c-4.1-4.2-10.8-4.2-15,0L3.1,162.5
			C-1,166.6-1,173.4,3.1,177.5z"/>
	</g>
</g>
</svg>
