<?xml version="1.0" encoding="utf-8"?>
<!-- Generator: Adobe Illustrator 23.0.1, SVG Export Plug-In . SVG Version: 6.00 Build 0)  -->
<svg version="1.1" id="Layer_1" xmlns="http://www.w3.org/2000/svg" xmlns:xlink="http://www.w3.org/1999/xlink" x="0px" y="0px"
	 viewBox="0 0 50 50" style="enable-background:new 0 0 50 50;" xml:space="preserve">
<path d="M39.9,4.6c-7.1-4-16.2-1.6-20.3,5.3l-6,10.1L2.5,27.1l11.6,6.5c-2.1,3.5-0.8,7.9,2.7,9.9c3.6,2,8.1,0.8,10.2-2.7l11.6,6.5
	l0.8-13l6-10.1C49.4,17.5,47,8.6,39.9,4.6z M18.3,41.1c-2.1-1.2-2.9-3.9-1.6-6l7.7,4.4C23.2,41.6,20.4,42.3,18.3,41.1z M42.8,23
	l-6,10.1l-0.6,9.7l-28.4-16l8.3-5.4l6-10.1C25.4,5.7,32.7,3.8,38.4,7C44.1,10.3,46,17.4,42.8,23z"/>
</svg>
