<?xml version="1.0" encoding="utf-8"?>
<!-- Generator: Adobe Illustrator 23.0.5, SVG Export Plug-In . SVG Version: 6.00 Build 0)  -->
<svg version="1.1" id="Capa_1" xmlns="http://www.w3.org/2000/svg" xmlns:xlink="http://www.w3.org/1999/xlink" x="0px" y="0px"
	 viewBox="0 0 32.4 32.4" style="enable-background:new 0 0 32.4 32.4;" xml:space="preserve">
<g>
	<path d="M16.2,0C7.3,0,0,7.3,0,16.2s7.3,16.2,16.2,16.2c9,0,16.2-7.3,16.2-16.2S25.2,0,16.2,0z M16.9,29.7v-2.4
		c0-0.4-0.3-0.7-0.7-0.7c-0.4,0-0.7,0.3-0.7,0.7v2.4C8.6,29.4,3,23.8,2.7,16.9H5c0.4,0,0.7-0.3,0.7-0.7c0-0.4-0.3-0.7-0.7-0.7H2.7
		C3,8.6,8.6,3,15.5,2.7c0,0,0,0,0,0v2.5c0,0.4,0.3,0.7,0.7,0.7s0.7-0.3,0.7-0.7V2.7c0,0,0,0,0,0C23.8,3,29.4,8.6,29.7,15.5h-2.3
		c-0.4,0-0.7,0.3-0.7,0.7c0,0.4,0.3,0.7,0.7,0.7h2.3C29.4,23.8,23.8,29.4,16.9,29.7z"/>
	<path d="M17.9,15.4c0-0.1-0.1-0.3-0.2-0.4c-0.4-0.6-1.1-0.6-1.5-0.1c-0.5,0.5-0.5,1.3-0.1,1.9c0.4,0.6,1.1,0.6,1.5,0.1
		c0,0,0.1-0.1,0.1-0.2c0,0,0,0,0,0l5.9,0l1.1-0.7l-1.3-0.7L17.9,15.4z"/>
	<path d="M15.9,17.5c0.1,0,0.1,0,0.2-0.1c0.4-0.3,0.9-1,1-1.6c0.1-0.6-0.1-0.8-0.5-0.5c-0.4,0.3-0.9,1-1,1.6c0,0.1,0,0.1,0,0.1
		c0,0,0,0,0,0l-3.8,6.2l-0.5,1.3l1-1.2L15.9,17.5z"/>
	<path d="M14.5,15.3c0,0.1-0.1,0.3-0.1,0.4c0,0.7,0.7,1.3,1.4,1.3c0.7,0,1.3-0.7,1.3-1.4c0-0.7-0.7-1.3-1.4-1.3c-0.1,0-0.1,0-0.2,0
		c0,0,0,0,0,0L9.8,9.6L8.2,9.3L9,10.8L14.5,15.3z"/>
</g>
</svg>
