<?xml version="1.0" encoding="utf-8"?>
<!-- Generator: Adobe Illustrator 23.0.1, SVG Export Plug-In . SVG Version: 6.00 Build 0)  -->
<svg version="1.1" id="Слой_1" xmlns="http://www.w3.org/2000/svg" xmlns:xlink="http://www.w3.org/1999/xlink" x="0px" y="0px"
	 viewBox="0 0 26 30" style="enable-background:new 0 0 26 30;" xml:space="preserve">
<path d="M24.7,2.7l-2.9-2.3c-0.8-0.6-1.9-0.5-2.6,0.3L16,6.3c-0.5,0.9-0.5,1.9,0.3,2.6l1.8,1.4c-1,1.7-2.2,3.6-3.6,5.3
	c-1.6,2-3.4,3.8-5,5.4l-1.7-1.3C7,19.1,6,19.3,5.2,20l-4.7,4.5c-0.8,0.7-0.5,1.9,0.3,2.6l2.9,2.3c1.6,1.3,3.4,0.6,5.2-0.6
	c0,0,5.3-3.8,9.6-9.3c4-5.1,6.9-11.6,6.9-11.6C25.8,5.7,26.3,3.9,24.7,2.7z M23.9,6.7c-1.2,3.1-4,7.9-6.5,11.2
	c-2.8,3.9-9.9,9.7-9.9,9.7c-0.6,0.4-2.2,0.6-2.7,0.2l-1.8-1.4c-0.4-0.5-0.6-1.1-0.2-1.6l3-2.8c0.5-0.4,1.1-0.6,1.6-0.2l2.3,1.8
	C10,23,17,17.1,20.4,9.8l-2.3-1.8c-0.5-0.4-0.5-1-0.2-1.6L20,2.7c0.4-0.6,1.1-0.6,1.6-0.2L23.4,4C24.1,4.5,24.1,6,23.9,6.7z"/>
</svg>
