<?xml version="1.0" encoding="utf-8"?>
<!-- Generator: Adobe Illustrator 23.0.1, SVG Export Plug-In . SVG Version: 6.00 Build 0)  -->
<svg version="1.1" id="Слой_1" xmlns="http://www.w3.org/2000/svg" xmlns:xlink="http://www.w3.org/1999/xlink" x="0px" y="0px"
	 viewBox="0 0 30 17" style="enable-background:new 0 0 30 17;" xml:space="preserve">
<g>
	<g>
		<path d="M29.7,15.2c-0.1-0.1-0.6-1.2-3-3.4c-2.5-2.3-2.2-1.9,0.9-5.9c1.8-2.4,2.6-3.9,2.3-4.6c-0.2-0.6-1.6-0.4-1.6-0.4l-4.5,0
			c0,0-0.3,0-0.6,0.1c-0.2,0.1-0.4,0.5-0.4,0.5s-0.7,1.9-1.7,3.5c-2,3.4-2.8,3.6-3.1,3.4c-0.8-0.5-0.6-2-0.6-3c0-3.3,0.5-4.7-1-5
			C16,0.1,15.7,0,14.4,0c-1.6,0-3,0-3.7,0.4C10.2,0.6,9.8,1.2,10,1.2c0.3,0,1,0.2,1.3,0.7c0.5,0.6,0.4,2,0.4,2s0.3,3.9-0.6,4.3
			c-0.6,0.3-1.4-0.3-3.2-3.4C7,3.3,6.3,1.5,6.3,1.5S6.2,1.2,6,1C5.7,0.8,5.3,0.8,5.3,0.8L1,0.8c0,0-0.6,0-0.9,0.3
			c-0.2,0.2,0,0.8,0,0.8s3.4,7.8,7.2,11.7c3.5,3.6,7.4,3.4,7.4,3.4h1.8c0,0,0.5-0.1,0.8-0.4c0.3-0.3,0.2-0.8,0.2-0.8s0-2.4,1.1-2.7
			c1.1-0.3,2.5,2.3,4,3.3c1.1,0.8,2,0.6,2,0.6l4-0.1C28.6,16.9,30.7,16.8,29.7,15.2z"/>
	</g>
</g>
</svg>
