<?xml version="1.0" encoding="utf-8"?>
<!-- Generator: Adobe Illustrator 23.0.1, SVG Export Plug-In . SVG Version: 6.00 Build 0)  -->
<svg version="1.1" id="Слой_1" xmlns="http://www.w3.org/2000/svg" xmlns:xlink="http://www.w3.org/1999/xlink" x="0px" y="0px"
	 viewBox="0 0 25 30" style="enable-background:new 0 0 25 30;" xml:space="preserve">
<g>
	<g>
		<path d="M24.6,15.2c-0.3-1.3-1.4-2.3-2.7-2.5c-3.1-0.4-6.2-0.4-9.4-0.4c-3.1,0-6.3,0-9.4,0.4c-1.3,0.1-2.4,1.1-2.7,2.5
			c-0.4,1.9-0.4,4-0.4,6c0,2,0,4.1,0.4,6c0.3,1.3,1.4,2.3,2.7,2.5C6.2,30,9.4,30,12.5,30c3.1,0,6.3,0,9.4-0.4
			c1.3-0.1,2.4-1.1,2.7-2.5c0.4-1.9,0.4-4,0.4-6C25,19.2,25,17.1,24.6,15.2z M7.1,16.7H5.3v9.7H3.6v-9.7H1.9v-1.6h5.3V16.7z
			 M11.7,26.4h-1.5v-0.9c-0.6,0.7-1.2,1-1.7,1c-0.5,0-0.8-0.2-1-0.6c-0.1-0.3-0.1-0.7-0.1-1.3V18h1.5v6.2c0,0.4,0,0.5,0,0.6
			c0,0.2,0.2,0.4,0.4,0.4c0.3,0,0.6-0.2,1-0.7V18h1.5L11.7,26.4L11.7,26.4z M17.4,23.9c0,0.8-0.1,1.3-0.2,1.7
			c-0.2,0.6-0.6,0.9-1.2,0.9c-0.5,0-1.1-0.3-1.6-0.9v0.8H13V15.1h1.5v3.7c0.5-0.6,1-0.9,1.6-0.9c0.6,0,1,0.3,1.2,1
			c0.1,0.3,0.2,0.9,0.2,1.7V23.9z M23.1,22.5h-3V24c0,0.8,0.3,1.2,0.8,1.2c0.4,0,0.6-0.2,0.7-0.6c0-0.1,0-0.4,0-1h1.5v0.2
			c0,0.5,0,0.8,0,1c-0.1,0.3-0.2,0.6-0.4,0.9c-0.4,0.6-1,0.9-1.8,0.9c-0.8,0-1.4-0.3-1.8-0.9c-0.3-0.4-0.5-1.1-0.5-2v-3
			c0-0.9,0.1-1.6,0.5-2c0.4-0.6,1-0.9,1.8-0.9c0.8,0,1.4,0.3,1.8,0.9c0.3,0.4,0.5,1.1,0.5,2L23.1,22.5L23.1,22.5z"/>
		<path d="M20.9,19.2c-0.5,0-0.8,0.4-0.8,1.2v0.8h1.5v-0.8C21.6,19.6,21.4,19.2,20.9,19.2z"/>
		<path d="M15.3,19.2c-0.2,0-0.5,0.1-0.8,0.4v5.1c0.3,0.3,0.5,0.4,0.8,0.4c0.4,0,0.7-0.4,0.7-1.1v-3.6
			C15.9,19.6,15.7,19.2,15.3,19.2z"/>
		<path d="M16.1,11.6c0.6,0,1.1-0.3,1.7-1v0.9h1.5V2.9h-1.5v6.5c-0.3,0.5-0.7,0.7-1,0.7c-0.2,0-0.3-0.1-0.4-0.4c0-0.1,0-0.2,0-0.6
			V2.9H15v6.7c0,0.6,0.1,1,0.1,1.3C15.3,11.4,15.6,11.6,16.1,11.6z"/>
		<path d="M5.5,6.8v4.6h1.7V6.8l2-6.8H7.5L6.3,4.5L5.1,0H3.4c0.4,1.1,0.7,2.1,1.1,3.2C5,4.8,5.3,6,5.5,6.8z"/>
		<path d="M11.5,11.6c0.8,0,1.4-0.3,1.8-0.9c0.3-0.4,0.5-1.1,0.5-2v-3c0-0.9-0.2-1.6-0.5-2c-0.4-0.6-1-0.9-1.8-0.9
			c-0.8,0-1.4,0.3-1.8,0.9c-0.3,0.4-0.5,1.1-0.5,2v3c0,0.9,0.2,1.6,0.5,2C10.1,11.3,10.7,11.6,11.5,11.6z M10.8,5.4
			c0-0.8,0.2-1.2,0.7-1.2c0.5,0,0.7,0.4,0.7,1.2V9c0,0.8-0.2,1.2-0.7,1.2c-0.5,0-0.7-0.4-0.7-1.2V5.4z"/>
	</g>
</g>
</svg>
